<svg width="738" height="245" viewBox="0 0 738 245" fill="none" xmlns="http://www.w3.org/2000/svg">
<path d="M332.737 102.194V92.762H377.176V102.194H360.611V146.871H349.303V102.194H332.737ZM386.582 162.089C385.155 162.089 383.817 161.975 382.566 161.746C381.333 161.534 380.312 161.261 379.501 160.927L382.038 152.525C383.359 152.93 384.548 153.15 385.605 153.186C386.679 153.221 387.604 152.974 388.379 152.446C389.171 151.917 389.814 151.019 390.307 149.751L390.968 148.034L376.41 106.289H388.247L396.648 136.092H397.071L405.552 106.289H417.468L401.695 151.257C400.937 153.441 399.907 155.343 398.603 156.964C397.318 158.602 395.688 159.861 393.716 160.742C391.743 161.64 389.365 162.089 386.582 162.089ZM423.227 162.089V106.289H434.324V113.106H434.826C435.319 112.014 436.032 110.904 436.966 109.777C437.917 108.632 439.15 107.681 440.665 106.923C442.197 106.148 444.1 105.761 446.372 105.761C449.331 105.761 452.061 106.536 454.562 108.086C457.063 109.618 459.062 111.934 460.559 115.034C462.057 118.117 462.805 121.983 462.805 126.633C462.805 131.16 462.074 134.982 460.612 138.1C459.168 141.2 457.195 143.551 454.694 145.154C452.211 146.739 449.428 147.532 446.345 147.532C444.161 147.532 442.303 147.171 440.771 146.448C439.256 145.726 438.014 144.819 437.045 143.727C436.076 142.617 435.337 141.499 434.826 140.372H434.482V162.089H423.227ZM434.245 126.58C434.245 128.993 434.579 131.098 435.249 132.895C435.918 134.691 436.887 136.092 438.155 137.096C439.423 138.082 440.964 138.575 442.778 138.575C444.61 138.575 446.16 138.073 447.428 137.069C448.697 136.048 449.657 134.638 450.308 132.842C450.978 131.028 451.312 128.94 451.312 126.58C451.312 124.238 450.986 122.177 450.335 120.398C449.683 118.619 448.723 117.227 447.455 116.223C446.187 115.219 444.628 114.717 442.778 114.717C440.947 114.717 439.397 115.202 438.128 116.171C436.878 117.139 435.918 118.513 435.249 120.292C434.579 122.071 434.245 124.167 434.245 126.58ZM488.803 147.664C484.628 147.664 481.035 146.818 478.023 145.127C475.029 143.419 472.722 141.006 471.101 137.888C469.481 134.753 468.671 131.045 468.671 126.765C468.671 122.591 469.481 118.927 471.101 115.774C472.722 112.621 475.003 110.164 477.944 108.403C480.903 106.642 484.373 105.761 488.354 105.761C491.031 105.761 493.523 106.192 495.831 107.055C498.156 107.901 500.181 109.178 501.907 110.886C503.651 112.595 505.007 114.744 505.976 117.333C506.945 119.905 507.429 122.917 507.429 126.369V129.46H473.162V122.485H496.835C496.835 120.865 496.482 119.429 495.778 118.178C495.073 116.928 494.096 115.95 492.845 115.246C491.612 114.524 490.177 114.163 488.539 114.163C486.83 114.163 485.315 114.559 483.994 115.351C482.691 116.126 481.669 117.175 480.93 118.496C480.19 119.799 479.811 121.252 479.794 122.855V129.486C479.794 131.494 480.163 133.229 480.903 134.691C481.661 136.153 482.726 137.28 484.1 138.073C485.474 138.866 487.103 139.262 488.988 139.262C490.238 139.262 491.383 139.086 492.423 138.734C493.462 138.381 494.351 137.853 495.091 137.148C495.831 136.444 496.394 135.581 496.782 134.559L507.192 135.246C506.663 137.747 505.58 139.931 503.942 141.798C502.321 143.648 500.225 145.092 497.654 146.131C495.1 147.153 492.15 147.664 488.803 147.664Z" fill="#3178C6"/>
<path d="M544.339 108.324C544.127 106.192 543.22 104.537 541.617 103.357C540.015 102.176 537.839 101.586 535.092 101.586C533.225 101.586 531.648 101.851 530.362 102.379C529.076 102.89 528.09 103.603 527.403 104.519C526.734 105.435 526.399 106.474 526.399 107.637C526.364 108.605 526.567 109.451 527.007 110.173C527.465 110.895 528.09 111.521 528.883 112.049C529.675 112.56 530.591 113.009 531.63 113.396C532.67 113.766 533.779 114.083 534.959 114.348L539.821 115.51C542.181 116.038 544.348 116.743 546.32 117.624C548.293 118.504 550.001 119.588 551.446 120.873C552.89 122.159 554.009 123.674 554.801 125.418C555.611 127.161 556.025 129.161 556.043 131.415C556.025 134.726 555.18 137.598 553.507 140.028C551.851 142.441 549.455 144.317 546.32 145.656C543.203 146.977 539.442 147.637 535.039 147.637C530.671 147.637 526.866 146.968 523.625 145.629C520.402 144.291 517.883 142.309 516.069 139.685C514.272 137.043 513.33 133.775 513.242 129.883H524.312C524.435 131.697 524.955 133.212 525.871 134.427C526.804 135.625 528.046 136.532 529.596 137.148C531.164 137.747 532.934 138.047 534.907 138.047C536.844 138.047 538.526 137.765 539.953 137.201C541.397 136.638 542.516 135.854 543.308 134.85C544.101 133.846 544.497 132.692 544.497 131.389C544.497 130.173 544.136 129.152 543.414 128.324C542.709 127.496 541.67 126.792 540.296 126.21C538.94 125.629 537.276 125.101 535.303 124.625L529.411 123.146C524.849 122.036 521.247 120.301 518.605 117.941C515.963 115.58 514.651 112.401 514.669 108.403C514.651 105.127 515.523 102.265 517.284 99.8163C519.063 97.368 521.503 95.4569 524.603 94.083C527.703 92.7092 531.225 92.0222 535.171 92.0222C539.187 92.0222 542.692 92.7092 545.686 94.083C548.698 95.4569 551.041 97.368 552.714 99.8163C554.387 102.265 555.25 105.1 555.303 108.324H544.339ZM574.782 123.41V146.871H563.527V92.762H574.465V113.449H574.94C575.856 111.054 577.336 109.178 579.379 107.822C581.422 106.448 583.985 105.761 587.067 105.761C589.885 105.761 592.342 106.377 594.438 107.61C596.552 108.826 598.19 110.578 599.353 112.868C600.533 115.14 601.114 117.861 601.096 121.032V146.871H589.841V123.04C589.859 120.539 589.225 118.592 587.939 117.201C586.671 115.809 584.892 115.114 582.602 115.114C581.07 115.114 579.714 115.44 578.533 116.091C577.371 116.743 576.455 117.694 575.786 118.945C575.134 120.178 574.799 121.666 574.782 123.41ZM621.526 147.637C618.937 147.637 616.629 147.188 614.604 146.29C612.578 145.374 610.976 144.026 609.795 142.248C608.633 140.451 608.052 138.214 608.052 135.537C608.052 133.282 608.466 131.389 609.293 129.856C610.121 128.324 611.249 127.091 612.675 126.157C614.102 125.224 615.722 124.519 617.537 124.044C619.368 123.568 621.288 123.234 623.296 123.04C625.656 122.793 627.559 122.564 629.003 122.353C630.447 122.124 631.495 121.789 632.147 121.349C632.799 120.909 633.125 120.257 633.125 119.394V119.235C633.125 117.562 632.596 116.267 631.539 115.351C630.5 114.436 629.021 113.978 627.101 113.978C625.075 113.978 623.464 114.427 622.266 115.325C621.068 116.206 620.276 117.315 619.888 118.654L609.478 117.809C610.007 115.343 611.046 113.211 612.596 111.415C614.146 109.601 616.145 108.209 618.593 107.24C621.059 106.254 623.913 105.761 627.154 105.761C629.408 105.761 631.566 106.025 633.627 106.553C635.705 107.082 637.546 107.901 639.149 109.011C640.769 110.12 642.046 111.547 642.979 113.291C643.913 115.017 644.38 117.086 644.38 119.5V146.871H633.706V141.244H633.389C632.737 142.512 631.865 143.63 630.773 144.599C629.681 145.55 628.369 146.299 626.837 146.845C625.304 147.373 623.534 147.637 621.526 147.637ZM624.749 139.87C626.405 139.87 627.867 139.544 629.135 138.892C630.403 138.223 631.399 137.325 632.121 136.197C632.843 135.07 633.204 133.793 633.204 132.366V128.06C632.852 128.289 632.367 128.5 631.751 128.694C631.152 128.87 630.474 129.037 629.716 129.196C628.959 129.337 628.202 129.469 627.444 129.592C626.687 129.698 626 129.795 625.383 129.883C624.062 130.076 622.909 130.385 621.922 130.807C620.936 131.23 620.17 131.803 619.624 132.525C619.078 133.229 618.805 134.11 618.805 135.167C618.805 136.699 619.36 137.871 620.469 138.681C621.597 139.473 623.023 139.87 624.749 139.87ZM653.112 146.871V106.289H664.023V113.37H664.446C665.186 110.851 666.428 108.949 668.171 107.663C669.915 106.36 671.923 105.708 674.195 105.708C674.759 105.708 675.367 105.743 676.018 105.814C676.67 105.884 677.242 105.981 677.736 106.104V116.091C677.207 115.933 676.476 115.792 675.543 115.669C674.609 115.545 673.755 115.484 672.98 115.484C671.324 115.484 669.845 115.845 668.541 116.567C667.255 117.271 666.234 118.258 665.476 119.526C664.737 120.794 664.367 122.256 664.367 123.912V146.871H653.112ZM683.555 162.089V106.289H694.651V113.106H695.153C695.646 112.014 696.36 110.904 697.293 109.777C698.244 108.632 699.477 107.681 700.992 106.923C702.525 106.148 704.427 105.761 706.699 105.761C709.658 105.761 712.388 106.536 714.889 108.086C717.39 109.618 719.39 111.934 720.887 115.034C722.384 118.117 723.133 121.983 723.133 126.633C723.133 131.16 722.402 134.982 720.94 138.1C719.495 141.2 717.523 143.551 715.021 145.154C712.538 146.739 709.755 147.532 706.673 147.532C704.488 147.532 702.63 147.171 701.098 146.448C699.583 145.726 698.341 144.819 697.373 143.727C696.404 142.617 695.664 141.499 695.153 140.372H694.81V162.089H683.555ZM694.572 126.58C694.572 128.993 694.907 131.098 695.576 132.895C696.245 134.691 697.214 136.092 698.482 137.096C699.75 138.082 701.292 138.575 703.106 138.575C704.938 138.575 706.488 138.073 707.756 137.069C709.024 136.048 709.984 134.638 710.636 132.842C711.305 131.028 711.64 128.94 711.64 126.58C711.64 124.238 711.314 122.177 710.662 120.398C710.01 118.619 709.05 117.227 707.782 116.223C706.514 115.219 704.955 114.717 703.106 114.717C701.274 114.717 699.724 115.202 698.456 116.171C697.205 117.139 696.245 118.513 695.576 120.292C694.907 122.071 694.572 124.167 694.572 126.58Z" fill="#9B4F96"/>
<path d="M118.005 18.5497C118.932 9.27898 112.168 1.01204 102.898 0.0849628C93.627 -0.842108 85.3601 5.92176 84.433 15.1925L101.219 16.8711L118.005 18.5497ZM63.3457 226.066C62.4186 235.336 69.1825 243.603 78.4532 244.53C87.7239 245.457 95.9909 238.694 96.9179 229.423L80.1318 227.744L63.3457 226.066ZM16.8699 149.384C7.55289 149.384 0 156.937 0 166.254C0 175.571 7.55289 183.124 16.8699 183.124V166.254V149.384ZM123.572 183.124H140.442V149.384H123.572V166.254V183.124ZM16.8699 66.1564C7.55289 66.1564 0 73.7093 0 83.0262C0 92.3432 7.55289 99.8961 16.8699 99.8961V83.0262V66.1564ZM123.572 99.8961H140.442V66.1564H123.572V83.0262V99.8961ZM101.219 16.8711L84.433 15.1925L77.8175 81.3476L94.6036 83.0262L111.39 84.7048L118.005 18.5497L101.219 16.8711ZM94.6036 83.0262L77.8175 81.3476L69.4947 164.575L86.2809 166.254L103.067 167.932L111.39 84.7048L94.6036 83.0262ZM86.2809 166.254L69.4947 164.575L63.3457 226.066L80.1318 227.744L96.9179 229.423L103.067 167.932L86.2809 166.254ZM16.8699 166.254V183.124H86.2809V166.254V149.384H16.8699V166.254ZM86.2809 166.254V183.124H123.572V166.254V149.384H86.2809V166.254ZM16.8699 83.0262V99.8961H94.6036V83.0262V66.1564H16.8699V83.0262ZM94.6036 83.0262V99.8961H123.572V83.0262V66.1564H94.6036V83.0262Z" fill="#3178C6"/>
<path d="M226.816 18.5497C227.743 9.27898 220.979 1.01204 211.708 0.0849628C202.438 -0.84211 194.171 5.92176 193.244 15.1925L210.03 16.8711L226.816 18.5497ZM172.156 226.066C171.229 235.336 177.993 243.603 187.264 244.53C196.534 245.457 204.801 238.694 205.728 229.423L188.942 227.744L172.156 226.066ZM166.168 149.384H149.298V183.124H166.168V166.254V149.384ZM272.87 183.124C282.187 183.124 289.74 175.571 289.74 166.254C289.74 156.937 282.187 149.384 272.87 149.384V166.254V183.124ZM166.168 66.1564H149.298V99.8961H166.168V83.0262V66.1564ZM272.87 99.8961C282.187 99.8961 289.74 92.3432 289.74 83.0262C289.74 73.7093 282.187 66.1564 272.87 66.1564V83.0262V99.8961ZM210.03 16.8711L193.244 15.1925L186.628 81.3476L203.414 83.0262L220.2 84.7048L226.816 18.5497L210.03 16.8711ZM203.414 83.0262L186.628 81.3476L178.305 164.575L195.091 166.254L211.878 167.932L220.2 84.7048L203.414 83.0262ZM195.091 166.254L178.305 164.575L172.156 226.066L188.942 227.744L205.728 229.423L211.878 167.932L195.091 166.254ZM166.168 166.254V183.124H195.091V166.254V149.384H166.168V166.254ZM195.091 166.254V183.124H272.87V166.254V149.384H195.091V166.254ZM166.168 83.0262V99.8961H203.414V83.0262V66.1564H166.168V83.0262ZM203.414 83.0262V99.8961H272.87V83.0262V66.1564H203.414V83.0262Z" fill="#9B4F96"/>
</svg>
